Jonah Hex (2010) DVDRip XviD-MAX

Format                           : AVI
Format/Info                      : Audio Video Interleave
Format profile                   : OpenDML
File size                        : 1.28 GiB
Duration                         : 1h 21mn
Overall bit rate                 : 2 257 Kbps
Writing application              : VirtualDubMod 1.5.10.2 (build 2542/release)
Writing library                  : VirtualDubMod build 2542/release
Original source form             : MAX TORRENTZ
Copyright                        : SIGISMUNT

Video
ID                               : 0
Format                           : MPEG-4 Visual
Format profile                   : AdvancedSimple@L5
Format settings, BVOP            : Yes
Format settings, QPel            : No
Format settings, GMC             : No warppoints
Format settings, Matrix          : Custom
Codec ID                         : XVID
Codec ID/Hint                    : XviD
Duration                         : 1h 21mn
Bit rate                         : 1 868 Kbps
Width                            : 720 pixels
Height                           : 304 pixels
Display aspect ratio             : 2.35:1
Frame rate                       : 23.976 fps
Resolution                       : 24 bits
Colorimetry                      : 4:2:0
Scan type                        : Progressive
Bits/(Pixel*Frame)               : 0.356
Stream size                      : 1.06 GiB (83%)
Writing library                  : XviD 1.2.1 (UTC 2008-12-04)

Audio
ID                               : 1
Format                           : AC-3
Format/Info                      : Audio Coding 3
Codec ID                         : 2000
Duration                         : 1h 21mn
Bit rate mode                    : Constant
Bit rate                         : 384 Kbps
Channel(s)                       : 6 channels
Channel positions                : Front: L C R, Surround: L R, LFE
Sampling rate                    : 48.0 KHz
Stream size                      : 224 MiB (17%)
Alignment                        : Aligned on interleaves
Interleave, duration             : 64 ms (1.53 video frames)
Interleave, preload duration     : 192 ms

Source: Jonah.Hex.2010.Bluray.720p.DTS.x264-CHD (perfect sync)
 
http://www.imdb.com/title/tt1075747/

Screens:
 
http://www.postimg.com/image/23000/22027.jpg
 
http://www.postimg.com/image/23000/22028.jpg
 
http://www.postimg.com/image/23000/22029.jpg
 
http://www.postimg.com/image/23000/22030.jpg
 
http://www.postimg.com/image/23000/22031.jpg

ScreenCaps:
 
http://www.postimg.com/image/23000/22032.jpg

Jonah Hex (2010) DVDRip XviD-MAX Torrent Free Download
 
http://thepiratebay.org/user/extremezone/0/7

How To Get Your Maxspeed (uTorrent)

Torrent Client - Preferences - Bandwidth - Number of connections - Set aprox. 500 for each 
Torrent Client - Preferences - BiTorrent - Protocol Encryption - Forced
Bandwidth Allocation - High (Set download/upload limit - Unlimited)
Stop Other Active Torrents - Start downloading and wait for connections.
Enjoy and Seed for at least 1:1 ratio. Don't forget to say thanks/leave reviews.
Greets to all actual/future p2p/scene quality groups and affiliate websites.
Don't trust IMDb robot or bad ratings,always watch some trailers first.
Ignore stupid comments/fake/mislabeled/no-dvdrips/CAM/TS/RAR uploads.
Please spread this release/torrent to your friends/forums/etc.
If you need translation subs visit some subtitles sites.
Report if you see online streaming or other spam links.
Recommended movie player VLC PLAYER.